<?xml version="1.0" encoding="UTF-8" standalone="no"?>
<!-- Created with love by LogoJoy (http://www.logojoy.com/) -->

<svg viewBox="0 0 255 66" preserveAspectRatio="xMidYMid meet" id="aacagcgf"><defs id="SvgjsDefs1001"><linearGradient id="SvgjsLinearGradient1011"><stop id="SvgjsStop1012" stop-color="#b88746" offset="0"></stop><stop id="SvgjsStop1013" stop-color="#fdf5a6" offset="1"></stop></linearGradient><linearGradient id="SvgjsLinearGradient1014"><stop id="SvgjsStop1015" stop-color="#b88746" offset="0"></stop><stop id="SvgjsStop1016" stop-color="#fdf5a6" offset="1"></stop></linearGradient><linearGradient id="SvgjsLinearGradient1017"><stop id="SvgjsStop1018" stop-color="#b88746" offset="0"></stop><stop id="SvgjsStop1019" stop-color="#fdf5a6" offset="1"></stop></linearGradient></defs><g id="SvgjsG1007" featurekey="root" fill="#364699"></g><g id="SvgjsG1008" featurekey="symbol1" fill="url(#SvgjsLinearGradient1017)" transform="matrix(0.8929228824603871,0,0,0.8929228824603871,7.790939891083498,-6.661940850461605)"><title>Artboard 1 copy 4</title><g data-name="Layer 2"><path d="M97.51,65.52a9.6,9.6,0,0,0-2.08-3.35,12.09,12.09,0,0,1-1.61-2.27,9,9,0,0,1-.77-3.37,20.13,20.13,0,0,1,0-2.34,3.65,3.65,0,0,0-.1-1.3,10.85,10.85,0,0,0-1.84-2.71l-2.43-4.82a10.1,10.1,0,0,0-1-1.66,8.33,8.33,0,0,0-.9-1,8.21,8.21,0,0,1-.58-.6,10.83,10.83,0,0,1-1.31-1.89,37.18,37.18,0,0,1-3.55-8.4,1.71,1.71,0,0,0-.61-1,0,0,0,0,0,0,0s0,0,0,0l-.06,0,0,0-.08,0-.13,0h0a1.78,1.78,0,0,0-.56.18c-.3.13-1.08.47-1.34.33a.76.76,0,0,1-.18-.18A16.09,16.09,0,0,1,76,27.7a12.84,12.84,0,0,1-.54-1.36c-.13-.38-.27-.76-.43-1.13a11.25,11.25,0,0,0-8.19-6.55h-.11a.51.51,0,0,0-.27.09h0c-.61.46-1.26.92-1.94,1.4a36.1,36.1,0,0,0-5.33,4.28,16.63,16.63,0,0,0-1.52,1.94c-.89,1.26-1.72,2.45-3,2.86a6.28,6.28,0,0,1-.86.19c-.25,0-.5.09-.74.15h0c-2.36.61-3.86,2.74-5.06,4.86a14.93,14.93,0,0,0-1.23-1.72,22.67,22.67,0,0,0-3-2.74c-1.63-1.32-3.17-2.56-3.94-4.35l0-.06a.22.22,0,0,0-.05-.08s0,0,0,0h0l-.06,0-.08-.05,0,0h-.08l-.06,0h-.12l-.1,0h0s0,0-.06,0l-.08.06h0c-1.77,1.77-2.65,4.17-3.49,6.48l-.07.19c-.72,2-2.07,4.45-4.37,4.94-.17,0-.35.06-.53.09a4.37,4.37,0,0,0-1.28.32,4.69,4.69,0,0,0-2,2.38c-.44.87-.86,1.69-1.62,1.93a3.56,3.56,0,0,1-1,.11,5,5,0,0,0-.93.06c-1.75.3-2.79,2-3.35,3.28-.14.32-.26.65-.39,1A8,8,0,0,1,18.53,49a23.68,23.68,0,0,1-2.29,1c-1.18.39-2.62,2.4-2.73,2.55a3.88,3.88,0,0,0-1,2,1.15,1.15,0,0,1-.07.27c-.07.1-.38.09-.64.09s-.27,0-.4,0A3.55,3.55,0,0,0,8.6,57.18c-.1.2-.19.41-.28.61a5.08,5.08,0,0,1-1.26,2,2.26,2.26,0,0,1-1.72.46l-.2,0a1.76,1.76,0,0,0-1.28.11,1.83,1.83,0,0,0-.69,1.14l-.68,2.6a.5.5,0,0,0,.36.61H3a.51.51,0,0,0,.49-.37l.68-2.6c0-.16.12-.46.24-.53a1,1,0,0,1,.58,0l.23,0a3.22,3.22,0,0,0,2.5-.68A5.9,5.9,0,0,0,9.23,58.2l.27-.59c.3-.64,1-1.71,1.92-1.77.1,0,.21,0,.32,0a1.6,1.6,0,0,0,1.47-.52,1.68,1.68,0,0,0,.26-.73,2.84,2.84,0,0,1,.8-1.42,7.58,7.58,0,0,1,2.28-2.25,25.1,25.1,0,0,0,2.51-1.11.38.38,0,0,0,.14-.11,8.94,8.94,0,0,0,1.69-3.1c.12-.32.24-.64.37-1a6.94,6.94,0,0,1,.41-.82,10.28,10.28,0,0,0,.41,1.89,1.12,1.12,0,0,0,0,.13v0l-2,3a17,17,0,0,1-1.54,2l-.41.41a9.6,9.6,0,0,0-.69.74c-.24.29-.46.61-.67.92l-.2.31a22.77,22.77,0,0,1-3.1,3.48c-.86.82-1.75,1.61-2.63,2.4-.65.58-1.3,1.16-2,1.72l-.37.32a17.87,17.87,0,0,0-2.64,2.58c-.38.5-.71,1-1,1.56A9.1,9.1,0,0,1,3,68.69a.49.49,0,0,0-.07.7.5.5,0,0,0,.39.18.45.45,0,0,0,.31-.11,9.85,9.85,0,0,0,2-2.6c.32-.52.62-1,1-1.47A16.78,16.78,0,0,1,9.1,63l.38-.33c.67-.57,1.32-1.15,2-1.73.89-.8,1.78-1.6,2.65-2.42a24.08,24.08,0,0,0,3.23-3.65l.21-.31c.2-.29.39-.58.61-.84a7.94,7.94,0,0,1,.63-.67l.43-.44a16.93,16.93,0,0,0,1.64-2.17L22.46,48A19.13,19.13,0,0,1,23,50.58,18.18,18.18,0,0,0,20.43,54a16.58,16.58,0,0,1-2.35,3.18c-.21.21-.43.4-.65.6s-.57.5-.83.78-.42.46-.63.69a8.26,8.26,0,0,1-1,1,7,7,0,0,1-.84.59c-.22.15-.44.29-.65.45a13.5,13.5,0,0,0-3,3.54l-.32.47a48,48,0,0,1-6,7.19.5.5,0,0,0,0,.71.48.48,0,0,0,.7,0A48.48,48.48,0,0,0,11,65.87l.32-.47a12.61,12.61,0,0,1,2.8-3.3c.19-.14.4-.28.6-.41a9.32,9.32,0,0,0,.93-.66,8.64,8.64,0,0,0,1.07-1.12c.19-.22.38-.44.58-.65s.52-.49.78-.72l.7-.64a18.32,18.32,0,0,0,2.49-3.35,20.59,20.59,0,0,1,1.88-2.68,9.92,9.92,0,0,1-.82,5c-.09.19-.2.38-.3.57h0a32,32,0,0,1-2.87,3.11l-.45.45-.5.49c-.4.39-.81.78-1.18,1.22a17.37,17.37,0,0,0-1.24,1.79c-.14.22-.28.44-.43.66-.58.89-1.26,1.76-1.95,2.64l-2,2.52a25.62,25.62,0,0,1-2.21,2.57L9,73.1a8.16,8.16,0,0,0-.94,1,6.65,6.65,0,0,0-.41.62,3.28,3.28,0,0,1-.77,1,5.26,5.26,0,0,1-.47.27,2,2,0,0,0-1.19,1.16.49.49,0,0,0,.34.61.34.34,0,0,0,.14,0,.49.49,0,0,0,.48-.36c.06-.2.3-.34.69-.54a4.83,4.83,0,0,0,.59-.35,4.11,4.11,0,0,0,1-1.25c.12-.18.23-.37.36-.54a6.73,6.73,0,0,1,.83-.87l.27-.26a26.11,26.11,0,0,0,2.3-2.68l2-2.56c.66-.85,1.35-1.73,2-2.66.15-.22.29-.45.44-.68a14.67,14.67,0,0,1,1.16-1.68,14.67,14.67,0,0,1,1.1-1.14l.52-.5.45-.45.14-.14a42.22,42.22,0,0,0-1.52,4.34,29.37,29.37,0,0,1-2.28,5.84l-3,3.22a8.05,8.05,0,0,0-1,1.25,7.76,7.76,0,0,0-.46.91,4.8,4.8,0,0,1-.56,1,5.5,5.5,0,0,1-.92.87,3.85,3.85,0,0,0-1.51,1.88.51.51,0,0,0,.36.62h.13a.49.49,0,0,0,.48-.37,3,3,0,0,1,1.17-1.36,6.24,6.24,0,0,0,1.08-1,6.23,6.23,0,0,0,.68-1.23c.13-.27.25-.54.4-.8A7.07,7.07,0,0,1,14,75.16l3-3.26s0,0,0,0,0,0,.05,0a28.94,28.94,0,0,0,2.4-6.11,28.92,28.92,0,0,1,2.29-5.88c.18-.31.37-.61.56-.91.33-.54.67-1.09,1-1.68,1.2-2.51,1.25-5.7.18-9.47.3.16.59.34.89.54a6.33,6.33,0,0,0,2.07,1h.11A.5.5,0,0,0,27,49a.49.49,0,0,0-.38-.59,5.6,5.6,0,0,1-1.74-.88,7.39,7.39,0,0,0-1.79-.92,6.89,6.89,0,0,1-.39-3A2.46,2.46,0,0,1,23.86,43a4.78,4.78,0,0,1,.77,0,4.28,4.28,0,0,0,1.31-.16,4.14,4.14,0,0,0,2.2-2.42c.19-.36.38-.71.58-1a2.89,2.89,0,0,0,.21.49,2.65,2.65,0,0,0,1.08,1,7,7,0,0,0-1.35,1.61l-.14.24a3.91,3.91,0,0,1-.4.6.82.82,0,0,1-.55.33.5.5,0,0,0,0,1h0a1.79,1.79,0,0,0,1.3-.68,4.59,4.59,0,0,0,.51-.76l.13-.22a5.93,5.93,0,0,1,1.41-1.62,1.72,1.72,0,0,1,.39.31,3.15,3.15,0,0,1,.33.44c.09.11.17.24.27.36a2.8,2.8,0,0,0-.54.69,3.18,3.18,0,0,0-.16.32l-.09.2a6,6,0,0,1-2,1.94.5.5,0,0,0,.29.91.47.47,0,0,0,.28-.09A6.83,6.83,0,0,0,32,44.05l.11-.23c0-.09.08-.18.13-.27a1.76,1.76,0,0,1,.48-.54,1.17,1.17,0,0,0,.38.07h.07a.49.49,0,0,0,.47-.52.47.47,0,0,0-.52-.48c-.23,0-.4-.24-.67-.63a4.57,4.57,0,0,0-.42-.54,4,4,0,0,0-1.2-.81L30.7,40a2.1,2.1,0,0,1-.9-.7,1.45,1.45,0,0,1-.23-.76.5.5,0,0,0,.15-.17,3.89,3.89,0,0,1,1-.22l.6-.1c2.75-.58,4.29-3.36,5.1-5.58l.07-.18a21.18,21.18,0,0,1,2.33-5c0,.52-.05,1-.06,1.55,0,.14-.08.33-.13.57a5.3,5.3,0,0,1-.32,1.22l-.18.3a4.83,4.83,0,0,0-.33.64,4.36,4.36,0,0,0-.26,1.14l0,.2A10.06,10.06,0,0,1,34.14,39a.5.5,0,0,0,.33.88.45.45,0,0,0,.32-.13,11,11,0,0,0,3.67-6.69l0-.2a4.06,4.06,0,0,1,.2-.91l.08-.16c.05,1.25.14,2.46.25,3.63h0a3.57,3.57,0,0,1-.2,1,2.45,2.45,0,0,1-.45.54,16.76,16.76,0,0,0-2.42,3.19.5.5,0,0,0,.18.68.48.48,0,0,0,.26.07.51.51,0,0,0,.43-.25,16.17,16.17,0,0,1,2.31-3h0a3.59,3.59,0,0,1-.28,1.36,4.74,4.74,0,0,1-.59.94c-.14.21-.29.41-.42.62a11,11,0,0,0-1.08,2.74c-.17.56-.32,1.09-.53,1.6a18.35,18.35,0,0,1-1.66,2.95l-.09.13h0a32.72,32.72,0,0,0-2.85,4c-.35.56-.72,1.13-1.1,1.7a65.46,65.46,0,0,1-4.22,5.59l-.23.27A17,17,0,0,0,24.2,62c-.2.37-.37.75-.55,1.13s-.24.54-.38.8a14.8,14.8,0,0,1-1.67,2.49l-.19.24a8.54,8.54,0,0,0-1.28,1.88,8.29,8.29,0,0,0-.39,1.08,5.7,5.7,0,0,1-.49,1.26,6,6,0,0,1-.43.6A3.13,3.13,0,0,0,18,73.26a.5.5,0,0,0,.47.53h0a.51.51,0,0,0,.5-.47,2.45,2.45,0,0,1,.63-1.21,8,8,0,0,0,.5-.69,6.7,6.7,0,0,0,.59-1.49A6.78,6.78,0,0,1,21,69a7.93,7.93,0,0,1,1.14-1.66l.2-.24a15.77,15.77,0,0,0,1.78-2.66c.14-.28.27-.56.4-.85s.33-.71.52-1.05a14.9,14.9,0,0,1,1.76-2.38l.23-.27a67.49,67.49,0,0,0,4.28-5.68c.36-.54.7-1.07,1-1.6,0,.14,0,.29,0,.43l0,0a4.12,4.12,0,0,0-.82,2.2,10.84,10.84,0,0,0,.07,2.61,41.94,41.94,0,0,1-4.12,6.5c-.95,1.32-1.94,2.69-2.81,4.1-.53.85-1,1.71-1.52,2.58a35.59,35.59,0,0,1-4.18,6.24A.5.5,0,0,0,19,78a.55.55,0,0,0,.34.13.51.51,0,0,0,.37-.17A36.33,36.33,0,0,0,24,71.53c.49-.86,1-1.72,1.5-2.56.85-1.38,1.83-2.73,2.77-4a51,51,0,0,0,3.58-5.44c0,.22.09.44.13.66a26.52,26.52,0,0,1,.47,2.9c0,.21,0,.43,0,.64h0a7.34,7.34,0,0,1-1.34,2.54l-.23.27a5.65,5.65,0,0,0-.76,1.12,5.06,5.06,0,0,0-.32,1c0,.14-.07.28-.11.42a10.17,10.17,0,0,1-.63,1.43c-.82,1.63-1.68,3.33-2.65,4.93l-.22.35a16.85,16.85,0,0,0-1,1.87,8,8,0,0,0-.61,2.2.51.51,0,0,0,.43.56h.07a.49.49,0,0,0,.49-.43A7.2,7.2,0,0,1,26.11,78a14.26,14.26,0,0,1,1-1.74l.23-.37c1-1.63,1.85-3.34,2.68-5a10.44,10.44,0,0,0,.69-1.58c0-.16.09-.31.13-.47a4.2,4.2,0,0,1,.25-.78,4.6,4.6,0,0,1,.63-.9l.24-.29a8.22,8.22,0,0,0,.82-1.23,12.43,12.43,0,0,0,.47,1.42l.13.35a26.2,26.2,0,0,1,.81,2.65,7.37,7.37,0,0,0-.87,1.64c-.08.2-.16.39-.24.56a16,16,0,0,1-2,3,17.25,17.25,0,0,0-2.08,3.07c-.1.21-.2.42-.29.63a5.55,5.55,0,0,1-.87,1.53.49.49,0,0,0,0,.7.46.46,0,0,0,.33.13.49.49,0,0,0,.37-.16,6.24,6.24,0,0,0,1-1.79c.09-.2.18-.41.28-.6a15.73,15.73,0,0,1,2-2.89,16.43,16.43,0,0,0,2.15-3.22c.09-.18.17-.38.26-.59s.17-.4.26-.59c0,.25.1.49.14.75l0,.12a.64.64,0,0,0,.06.18,13.42,13.42,0,0,1,1.48,4.25.49.49,0,0,0,.48.41h.1a.51.51,0,0,0,.4-.59,14.71,14.71,0,0,0-1.55-4.5v0a25.67,25.67,0,0,0-1.31-5l-.13-.35a10.55,10.55,0,0,1-.51-1.6,11.27,11.27,0,0,1-.15-1.46c0-.23,0-.45,0-.67A27,27,0,0,0,33,60c-.1-.53-.2-1-.29-1.56a4.26,4.26,0,0,1,2.89,1.06c.14.12.27.26.41.39a3.86,3.86,0,0,0,1.93,1.24H38a.49.49,0,0,0,.49-.41.51.51,0,0,0-.4-.59,3,3,0,0,1-1.41-1l-.44-.41a5.24,5.24,0,0,0-3.7-1.34,9.28,9.28,0,0,1,0-2,3.13,3.13,0,0,1,.64-1.74l.13-.21a.48.48,0,0,0,.06-.24c.06-1.74,1-3.24,2.07-4.83a18.3,18.3,0,0,0,1.76-3.11c.22-.56.39-1.14.56-1.69a9.71,9.71,0,0,1,1-2.5c.12-.19.25-.38.38-.56a6.91,6.91,0,0,0,.69-1.11,6.85,6.85,0,0,0,.29-3.52v-.11a58.55,58.55,0,0,1-.28-8.21,18.43,18.43,0,0,0,3.36,3.24A21.48,21.48,0,0,1,46,33.37a20.39,20.39,0,0,1,2.23,3.5,17.8,17.8,0,0,0,2.88,4.2l0,0a8,8,0,0,0,.93.8,12.28,12.28,0,0,0,1.42.87,6.48,6.48,0,0,1,2.31,1.8,7.19,7.19,0,0,1,.5,1c.11.24.23.49.36.73a10.6,10.6,0,0,0,3.08,3.14,14,14,0,0,1,2.27,2,14.2,14.2,0,0,1,1.45,2.3,9.13,9.13,0,0,0,2.8,3.57c.23.14.47.27.71.4a4.86,4.86,0,0,1,1,.65,5.15,5.15,0,0,1,.47.56,5,5,0,0,0,.58.67,5.38,5.38,0,0,0,2,1,10.33,10.33,0,0,1,1,.39,9.36,9.36,0,0,1,2.68,2.42,8.63,8.63,0,0,0,3.56,2.86.47.47,0,0,0,.16,0,.5.5,0,0,0,.16-1,7.65,7.65,0,0,1-3.12-2.57,10.16,10.16,0,0,0-3-2.65,10,10,0,0,0-1.07-.44,4.74,4.74,0,0,1-1.63-.84,4.88,4.88,0,0,1-.47-.55,4.49,4.49,0,0,0-.58-.67,5,5,0,0,0-1.22-.81c-.22-.12-.43-.23-.63-.36a8.21,8.21,0,0,1-2.47-3.21,14.79,14.79,0,0,0-1.56-2.46,14.31,14.31,0,0,0-2.43-2.18,17.67,17.67,0,0,1-1.77-1.5c1.49-1.35,1.94-3.38,2.36-5.35.07-.34.14-.67.22-1a10.43,10.43,0,0,0,.16-1.08,5.41,5.41,0,0,1,.25-1.33,4.63,4.63,0,0,1,.59-1,5.4,5.4,0,0,0,.76-1.45A5.25,5.25,0,0,0,63,34.26c0-.24,0-.46,0-.67l.15.27a6.25,6.25,0,0,0,2.38,2.21.47.47,0,0,0,.27.08.48.48,0,0,0,.42-.23.5.5,0,0,0-.15-.69,5.46,5.46,0,0,1-2-1.85,3.33,3.33,0,0,0-.69-1,7.81,7.81,0,0,1,.72-1.12,5.05,5.05,0,0,0,1.18-2.59,5,5,0,0,0-.5-2.18,10.8,10.8,0,0,1-.37-1.09,2.67,2.67,0,0,1,.13-1.59v0A8.6,8.6,0,0,1,65.65,22,13.38,13.38,0,0,0,67,19.74a10.21,10.21,0,0,1,7.08,5.85c.15.36.28.73.41,1.09s.35,1,.57,1.44a17.29,17.29,0,0,0,2.4,3.53,1.61,1.61,0,0,0,.48.44,2,2,0,0,0,1.49,0,7.2,7.2,0,0,0-.09,1.23c-.24.51-1.41.62-2,.59a.52.52,0,0,0-.53.47.51.51,0,0,0,.47.53h.24a4.53,4.53,0,0,0,1.81-.35q0,.56,0,1.11a7,7,0,0,0-.79.56,4.68,4.68,0,0,1-1.75,1,.49.49,0,0,0-.49.51.51.51,0,0,0,.5.49h0A4.82,4.82,0,0,0,79.2,37l.06,0c0,.3-.06.59-.11.88a3.3,3.3,0,0,1-.25.85,3.82,3.82,0,0,1-.57.75l-3.8,4.19a.49.49,0,0,0,0,.7.51.51,0,0,0,.71,0l3.8-4.19a4.64,4.64,0,0,0,.73-1A4,4,0,0,0,80.13,38a17.82,17.82,0,0,0,.28-3.64l0-.39a9.48,9.48,0,0,1,0-1.68A38.16,38.16,0,0,0,84,40.74a11.91,11.91,0,0,0,1.43,2.06c.2.22.42.44.63.65a9.36,9.36,0,0,1,.82.86,8.89,8.89,0,0,1,.87,1.5l2.47,4.87a.41.41,0,0,0,.07.11A10.53,10.53,0,0,1,92,53.2a3,3,0,0,1,0,1,21,21,0,0,0,0,2.38,10.2,10.2,0,0,0,.87,3.74,12.76,12.76,0,0,0,1.74,2.47,8.52,8.52,0,0,1,1.89,3,.49.49,0,0,0,.48.36l.14,0A.51.51,0,0,0,97.51,65.52ZM52.8,30.72c.07.27.13.54.2.84a27.88,27.88,0,0,1-2.35,3.32c-.49.62-.95,1.23-1.37,1.87l-.2-.36c-.17-.32-.35-.64-.53-1C49.65,33.41,50.9,31.45,52.8,30.72Zm-3,7a24.2,24.2,0,0,1,1.6-2.22C52,34.78,52.63,34,53.26,33a8.94,8.94,0,0,1,.08,1.23,4.23,4.23,0,0,1-1.22,3.13,4.28,4.28,0,0,0-1.17,2A17.22,17.22,0,0,1,49.83,37.72Zm15-16.35a11,11,0,0,0-1.18,1.9c-2,.93-3.41,2.78-4.81,4.58-.56.72-1.09,1.41-1.64,2a.51.51,0,0,0,0,.71.55.55,0,0,0,.34.13.5.5,0,0,0,.37-.17c.58-.63,1.12-1.33,1.69-2.07a17.46,17.46,0,0,1,3.69-3.86,3.75,3.75,0,0,0,.09,1,7.39,7.39,0,0,0,.31.94l-.89.88-1.12,1.11a4.62,4.62,0,0,1-1.11.93l-.34.14a2.81,2.81,0,0,0-.92.54,2.73,2.73,0,0,0-.65,1.36l0,.17A6.44,6.44,0,0,1,56.55,35a.49.49,0,0,0-.07.7.51.51,0,0,0,.39.19.47.47,0,0,0,.31-.12A7.49,7.49,0,0,0,59.62,32l.05-.19a2,2,0,0,1,.38-.89,2.1,2.1,0,0,1,.6-.32l.41-.18a5.5,5.5,0,0,0,1.38-1.12c.35-.36.73-.73,1.1-1.1l.57-.56a3,3,0,0,1,.15,1,4.24,4.24,0,0,1-1,2.07,8.08,8.08,0,0,0-.95,1.58l-.77.74a15.17,15.17,0,0,0-1.74,1.83,30.77,30.77,0,0,0-1.74,2.64l-2.41,4a.51.51,0,0,0,.43.76.52.52,0,0,0,.43-.24l2.41-4a30.18,30.18,0,0,1,1.67-2.55A12.85,12.85,0,0,1,62,33.92c0,.12,0,.23,0,.35a4.35,4.35,0,0,1-.1,1.32,4.52,4.52,0,0,1-.64,1.17A6.27,6.27,0,0,0,60.6,38a6.43,6.43,0,0,0-.32,1.58,6,6,0,0,1-.14,1c-.07.34-.15.68-.22,1-.39,1.8-.79,3.66-2,4.8a4.82,4.82,0,0,1-.4-.57c-.12-.22-.22-.44-.32-.67a7.75,7.75,0,0,0-.58-1.1,7.38,7.38,0,0,0-2.65-2.1c-.47-.27-.92-.53-1.33-.82a9.35,9.35,0,0,1-.75-.64,3.22,3.22,0,0,1,.92-2.31,5.15,5.15,0,0,0,1.56-3.86,15.79,15.79,0,0,0-.58-3.83l.18,0a9.3,9.3,0,0,0,1-.22c1.63-.52,2.6-1.91,3.55-3.25a14.17,14.17,0,0,1,1.42-1.81A34.61,34.61,0,0,1,65.09,21l.09-.06Z"></path><path d="M55.8,52.48A9.22,9.22,0,0,1,52.71,50l-.22-.28a5.61,5.61,0,0,0-.87-1,6.84,6.84,0,0,0-.83-.57,6.92,6.92,0,0,1-.72-.48,5.81,5.81,0,0,1-.65-.73l-.25-.3a8.58,8.58,0,0,0-4.29-2.74.41.41,0,0,0-.11,0,.51.51,0,0,0-.3,0A3.19,3.19,0,0,0,43,45.34a4.87,4.87,0,0,1-.32.47,3.37,3.37,0,0,1-1.16,1,.51.51,0,0,0-.21.68.51.51,0,0,0,.45.27.46.46,0,0,0,.23-.06,4.51,4.51,0,0,0,1.5-1.28c.12-.17.24-.35.35-.53a4.82,4.82,0,0,1,.54-.72c.31.39.62.8.92,1.22l-3.27,2.77a.5.5,0,0,0,.32.88.52.52,0,0,0,.33-.12l3.18-2.7a11.47,11.47,0,0,1,.65,1.19l-2.11,1.33a.49.49,0,0,0-.16.69.51.51,0,0,0,.42.23.5.5,0,0,0,.27-.07l1.95-1.23c.06.2.12.4.17.61l.05.29c0,.18.08.37.13.55l-.76.56a.5.5,0,0,0-.11.7.51.51,0,0,0,.4.2.53.53,0,0,0,.3-.09l.57-.43c.14.23.3.45.45.65a7.33,7.33,0,0,1,.5.73A8.16,8.16,0,0,1,49,54a4.4,4.4,0,0,0,.87,1.6,4.93,4.93,0,0,0,.93.7c.54.34.87.58.92.93a.5.5,0,0,0,.49.44h.07a.49.49,0,0,0,.43-.56,2.42,2.42,0,0,0-1.38-1.65,4.07,4.07,0,0,1-.74-.55,3.4,3.4,0,0,1-.65-1.24,5.45,5.45,0,0,0-1-1.82,4.42,4.42,0,0,1-.61-1,4.12,4.12,0,0,1-.18-.75l-.07-.31a11.45,11.45,0,0,0-2.25-4.42,7.42,7.42,0,0,1,2.6,2l.24.29a5.61,5.61,0,0,0,.78.85,5.89,5.89,0,0,0,.85.59,4.74,4.74,0,0,1,.7.47,4.93,4.93,0,0,1,.73.83l.23.29a10.4,10.4,0,0,0,3.42,2.76.59.59,0,0,0,.22,0,.5.5,0,0,0,.23-1Z"></path></g></g><g id="SvgjsG1009" featurekey="text1" fill="url(#SvgjsLinearGradient1011)" transform="matrix(1.190536756013542,0,0,1.190536756013542,114.40473169295475,7.594555854795278)"><path d="M6.82 21.48 c0 -1.1 -0.78 -1.82 -2.62 -2.72 s-3.54 -1.88 -3.54 -4.12 c0 -2.04 1.7 -3.38 3.84 -3.38 c1.48 0 2.08 0.48 2.56 0.48 c0.24 0 0.42 -0.08 0.48 -0.32 l0.8 0 l0.16 2.88 l-0.5 -0.02 c-0.32 -0.02 -0.48 -0.1 -0.64 -0.44 c-0.54 -1.16 -1.44 -1.74 -2.4 -1.74 c-1.16 0 -1.82 0.78 -1.82 1.68 c0 1.18 0.86 1.78 2.32 2.46 c1.52 0.72 4.04 1.68 4.04 4.32 c0 2.58 -2.36 3.72 -4.12 3.72 c-1.8 0 -2.56 -0.78 -3.18 -0.78 c-0.46 0 -0.6 0.26 -0.66 0.5 l-0.84 0 l-0.2 -3.04 l0.66 0 c0.32 0 0.48 0.08 0.58 0.38 c0.42 1.26 1.72 2.04 3.1 2.04 c1.18 0 1.98 -0.74 1.98 -1.9 z M31.258000000000003 21.46 c0.48 1.26 0.78 1.68 2.1 1.78 l0 0.76 c-2.02 -0.06 -4.04 -0.06 -6.06 0 l0 -0.76 c1.18 -0.08 1.64 -0.24 1.34 -1.04 l-0.9 -2.42 l-3.74 0 l-0.8 2.42 c-0.26 0.8 0.58 0.96 1.98 1.04 l0 0.76 c-1.64 -0.06 -3.46 -0.06 -5.1 0 l0 -0.76 c1.4 -0.1 1.94 -0.42 2.26 -1.34 l3.52 -10.42 l1.64 0 z M24.278 18.98 l3.16 0 l-1.68 -4.48 z M52.836 20.88 c0.98 1.5 1.98 2.44 3 2.52 l-0.48 0.76 c-1.46 0 -3.18 -0.22 -4.78 -2.44 l-1.86 -2.54 l-0.06 0 l-0.46 0.06 l0 3.28 c0 0.5 0.34 0.64 1.44 0.72 l0 0.76 c-1.9 -0.06 -3.8 -0.06 -5.7 0 l0 -0.76 c1.1 -0.08 1.44 -0.22 1.44 -0.72 l0 -9.34 c0 -0.5 -0.34 -0.76 -1.32 -0.84 l0 -0.76 c1.94 0.08 3.9 0 5.04 0 c4.32 0 5.66 1.48 5.66 3.56 c0 1.46 -1.02 2.72 -3.42 3.48 z M48.196 12.38 l0 6.02 l0.4 -0.06 c2.5 -0.38 3.48 -1.54 3.48 -3.28 c0 -1.56 -0.82 -2.68 -2.54 -2.68 l-1.34 0 z M70.81400000000001 22.5 c0 0.5 0.38 0.66 1.48 0.74 l0 0.76 c-1.9 -0.06 -3.88 -0.06 -5.78 0 l0 -0.76 c1.1 -0.08 1.48 -0.24 1.48 -0.74 l0 -9.42 c0 -0.5 -0.38 -0.66 -1.48 -0.74 l0 -0.76 c1.9 0.06 3.88 0.06 5.78 0 l0 0.76 c-1.1 0.08 -1.48 0.24 -1.48 0.74 l0 9.42 z M94.052 21.46 c0.48 1.26 0.78 1.68 2.1 1.78 l0 0.76 c-2.02 -0.06 -4.04 -0.06 -6.06 0 l0 -0.76 c1.18 -0.08 1.64 -0.24 1.34 -1.04 l-0.9 -2.42 l-3.74 0 l-0.8 2.42 c-0.26 0.8 0.58 0.96 1.98 1.04 l0 0.76 c-1.64 -0.06 -3.46 -0.06 -5.1 0 l0 -0.76 c1.4 -0.1 1.94 -0.42 2.26 -1.34 l3.52 -10.42 l1.64 0 z M87.07200000000002 18.98 l3.16 0 l-1.68 -4.48 z M114.77000000000001 17.22 c2.5 0.44 3.66 1.64 3.66 3.3 c0 2.22 -1.9 3.48 -5.62 3.48 l-6.08 0 l0 -0.76 c1.1 -0.08 1.44 -0.22 1.44 -0.72 l0 -9.34 c0 -0.5 -0.34 -0.76 -1.32 -0.84 l0 -0.76 c1.94 0.08 3.7 0 4.76 0 c4.36 0 5.48 1.52 5.48 3.08 c0 1.02 -0.62 1.96 -2.32 2.56 z M110.99000000000002 12.4 l0 4.88 c2.62 -0.42 3.44 -1.06 3.44 -2.62 c0 -1.3 -0.64 -2.28 -2.34 -2.28 c-0.54 0 -0.8 0 -1.1 0.02 z M112.77000000000002 23.14 c1.82 0 2.8 -0.8 2.8 -2.62 c0 -1.62 -0.88 -2.72 -2.84 -2.72 l-1.74 0.3 l0 4.36 c0 0.5 0.06 0.68 1.02 0.68 l0.76 0 z"></path></g><g id="SvgjsG1010" featurekey="text3" fill="url(#SvgjsLinearGradient1014)" transform="matrix(0.5041654498027612,0,0,0.5041654498027612,114.11266857275042,47.22051320908737)"><path d="M3.88 9.84 l8.2 11.76 l0.04 0 l0 -11.76 l1.68 0 l0 14.16 l-2.12 0 l-8.2 -11.76 l-0.04 0 l0 11.76 l-1.68 0 l0 -14.16 l2.12 0 z M23.9 9.48 q3.2 0 5.28 2.1 t2.12 5.34 q-0.02 3.3 -2.14 5.36 t-5.26 2.08 q-3.2 0 -5.28 -2.11 t-2.12 -5.33 q0 -3.2 2.08 -5.3 t5.32 -2.14 z M18.3 16.92 q0 2.54 1.6 4.19 t4 1.69 q2.4 0 3.98 -1.68 t1.62 -4.2 q0 -2.46 -1.56 -4.15 t-4.06 -1.73 q-2.44 0.02 -3.99 1.71 t-1.59 4.17 z M36.120000000000005 9.84 l8.2 11.76 l0.04 0 l0 -11.76 l1.68 0 l0 14.16 l-2.12 0 l-8.2 -11.76 l-0.04 0 l0 11.76 l-1.68 0 l0 -14.16 l2.12 0 z M53.580000000000005 18.48 l0 1.44 l-4.9 0 l0 -1.44 l4.9 0 z M60.52000000000001 9.84 q2.28 0 3.55 0.98 t1.31 2.9 q0 1.86 -1.24 2.87 t-3.32 1.05 l-2.92 0 l0 6.36 l-1.68 0 l0 -14.16 l4.3 0 z M60.82000000000001 16.08 q1.28 0 2.02 -0.62 t0.74 -1.72 t-0.73 -1.72 t-2.03 -0.62 l-2.92 0 l0 4.68 l2.92 0 z M71.94000000000001 9.84 q2.78 0 4.09 0.92 t1.31 2.96 q0 1.5 -0.89 2.47 t-2.65 1.29 l4.02 6.52 l-2.06 0 l-3.84 -6.36 l-2.16 0 l0 6.36 l-1.68 0 l0 -14.16 l3.86 0 z M71.76 16.08 q1.98 0 2.88 -0.55 t0.9 -1.79 q0 -1.2 -0.81 -1.77 t-2.51 -0.57 l-2.46 0 l0 4.68 l2 0 z M86.88000000000001 9.48 q3.2 0 5.28 2.1 t2.12 5.34 q-0.02 3.3 -2.14 5.36 t-5.26 2.08 q-3.2 0 -5.28 -2.11 t-2.12 -5.33 q0 -3.2 2.08 -5.3 t5.32 -2.14 z M81.28 16.92 q0 2.54 1.6 4.19 t4 1.69 q2.4 0 3.98 -1.68 t1.62 -4.2 q0 -2.46 -1.56 -4.15 t-4.06 -1.73 q-2.44 0.02 -3.99 1.71 t-1.59 4.17 z M105.75999999999999 9.84 l0 1.56 l-7.1 0 l0 4.68 l6.6 0 l0 1.56 l-6.6 0 l0 6.36 l-1.68 0 l0 -14.16 l8.78 0 z M109.78 9.84 l0 14.16 l-1.68 0 l0 -14.16 l1.68 0 z M122.80000000000001 9.84 l0 1.56 l-4.68 0 l0 12.6 l-1.68 0 l0 -12.6 l-4.68 0 l0 -1.56 l11.04 0 z  M136.92000000000002 9.48 q3.2 0 5.28 2.1 t2.12 5.34 q-0.02 3.3 -2.14 5.36 t-5.26 2.08 q-3.2 0 -5.28 -2.11 t-2.12 -5.33 q0 -3.2 2.08 -5.3 t5.32 -2.14 z M131.32000000000002 16.92 q0 2.54 1.6 4.19 t4 1.69 q2.4 0 3.98 -1.68 t1.62 -4.2 q0 -2.46 -1.56 -4.15 t-4.06 -1.73 q-2.44 0.02 -3.99 1.71 t-1.59 4.17 z M150.88000000000002 9.84 q2.78 0 4.09 0.92 t1.31 2.96 q0 1.5 -0.89 2.47 t-2.65 1.29 l4.02 6.52 l-2.06 0 l-3.84 -6.36 l-2.16 0 l0 6.36 l-1.68 0 l0 -14.16 l3.86 0 z M150.70000000000002 16.08 q1.98 0 2.88 -0.55 t0.9 -1.79 q0 -1.2 -0.81 -1.77 t-2.51 -0.57 l-2.46 0 l0 4.68 l2 0 z M166.04000000000002 9.48 q3.14 0 5 1.86 l-1.26 1.32 q-0.74 -0.78 -1.75 -1.2 t-2.11 -0.42 q-2.44 0 -4.05 1.68 t-1.65 4.2 q0.02 2.62 1.66 4.23 t4.2 1.65 q1.84 0 3.52 -0.82 l0 -4.34 l-3.26 0 l0 -1.56 l4.94 0 l0 6.96 q-2.44 1.32 -5.3 1.32 q-3.34 0 -5.43 -2.09 t-2.13 -5.35 q0.02 -3.26 2.16 -5.32 t5.46 -2.12 z M180.98000000000002 9.84 l6.02 14.16 l-1.96 0 l-1.44 -3.48 l-7.08 0 l-1.46 3.48 l-1.9 0 l6.24 -14.16 l1.58 0 z M180.12000000000003 12 l-2.94 6.96 l5.78 0 l-2.8 -6.96 l-0.04 0 z M191.00000000000003 9.84 l8.2 11.76 l0.04 0 l0 -11.76 l1.68 0 l0 14.16 l-2.12 0 l-8.2 -11.76 l-0.04 0 l0 11.76 l-1.68 0 l0 -14.16 l2.12 0 z M206.12000000000003 9.84 l0 14.16 l-1.68 0 l0 -14.16 l1.68 0 z M213.78000000000003 9.48 q2.58 0 3.96 1.66 l-1.38 1.2 q-0.8 -1.26 -2.58 -1.3 q-1.34 0 -2.18 0.64 t-0.84 1.74 q0 0.96 0.64 1.52 t2.4 1.1 q2.28 0.66 3.23 1.61 t0.95 2.57 q0 1.88 -1.4 3 t-3.58 1.14 q-1.46 0 -2.6 -0.52 t-1.76 -1.44 l1.44 -1.18 q0.46 0.76 1.28 1.17 t1.74 0.41 q1.26 0 2.17 -0.71 t0.91 -1.75 q0 -0.94 -0.53 -1.48 t-1.75 -0.92 l-1.62 -0.54 q-1.82 -0.62 -2.57 -1.55 t-0.75 -2.29 q0 -1.8 1.34 -2.93 t3.48 -1.15 z M226.94000000000003 9.84 l6.02 14.16 l-1.96 0 l-1.44 -3.48 l-7.08 0 l-1.46 3.48 l-1.9 0 l6.24 -14.16 l1.58 0 z M226.08000000000004 12 l-2.94 6.96 l5.78 0 l-2.8 -6.96 l-0.04 0 z M244.34000000000003 9.84 l0 1.56 l-4.68 0 l0 12.6 l-1.68 0 l0 -12.6 l-4.68 0 l0 -1.56 l11.04 0 z M248.00000000000003 9.84 l0 14.16 l-1.68 0 l0 -14.16 l1.68 0 z M258.1 9.48 q3.2 0 5.28 2.1 t2.12 5.34 q-0.02 3.3 -2.14 5.36 t-5.26 2.08 q-3.2 0 -5.28 -2.11 t-2.12 -5.33 q0 -3.2 2.08 -5.3 t5.32 -2.14 z M252.50000000000003 16.92 q0 2.54 1.6 4.19 t4 1.69 q2.4 0 3.98 -1.68 t1.62 -4.2 q0 -2.46 -1.56 -4.15 t-4.06 -1.73 q-2.44 0.02 -3.99 1.71 t-1.59 4.17 z M270.32 9.84 l8.2 11.76 l0.04 0 l0 -11.76 l1.68 0 l0 14.16 l-2.12 0 l-8.2 -11.76 l-0.04 0 l0 11.76 l-1.68 0 l0 -14.16 l2.12 0 z"></path></g></svg>
